<?xml version="1.0" encoding="utf-8"?>
<!-- Generator: Adobe Illustrator 16.0.0, SVG Export Plug-In . SVG Version: 6.00 Build 0)  -->
<!DOCTYPE svg PUBLIC "-//W3C//DTD SVG 1.1//EN" "http://www.w3.org/Graphics/SVG/1.1/DTD/svg11.dtd">
<svg version="1.1" id="Layer_1" xmlns="http://www.w3.org/2000/svg" xmlns:xlink="http://www.w3.org/1999/xlink" x="0px" y="0px"
	 width="500px" height="500px" viewBox="-70.228 -5.706 500 500" enable-background="new -70.228 -5.706 500 500"
	 xml:space="preserve">
<path transform="translate(-55.000000,483.963391) scale(0.100000,-0.100000)" fill="#49307F" d="M2251.465,4765.996
	c-72.002-32.002-109.004-112.002-93.994-198.999c7.988-51.001,35.996-88.003,87.988-113.999c24.004-12.002,46.006-25,49.004-27.002
	c8.008-8.999,30.996-140,25.996-147.998c-2.988-5-13.994-8.003-25-8.003c-40.996,0-175.996-31.997-237.998-56.997
	c-317.002-126.001-500.996-426.001-475.996-777.002c3.994-53.999,8.994-105,12.002-112.002
	c10.996-28.999-8.008-11.997-48.008,42.002c-43.994,58.999-118.994,210-118.994,237.998c0,10,7.998,31.001,17.002,49.004
	c36.992,70,32.998,157.998-9.004,218.999c-10,13.999-17.998,38.999-17.998,55c0,81.997-57.998,168.999-135,203.999
	c-55,25-149.004,25-220-2.002c-67.998-25-141.006-93.999-175-163.999c-49.004-102.998-35-252.998,32.002-337.998
	c22.998-28.999,35.996-63.999,55-150c41.992-193.003,121.992-366.001,233.994-513.003l51.006-65l-57.002-75
	c-160-208.999-417.998-345-627.998-331.001c-79.004,5-107.002-3.999-107.002-37.002c0-46.992,107.002-192.988,217.998-296.992
	c130-121.992,264.004-184.004,462.002-213.008c132.998-20,157.002-26.992,235-70c68.994-37.988,152.998-65.996,197.002-65.996
	c26.992,0,27.998-1.992,22.998-36.992c-2.998-20.996-14.004-107.012-24.004-190l-18.994-153.008l-70-65
	c-92.002-85.996-128.008-160.996-106.006-220c15-39.004,49.004-44.004,357.998-46.992c0,0,259.756-5.166,279.761-2.822
	s36.245,22.822,36.245,22.822c10,11.992,38.994,89.004,65,170c25,80.996,65,205.996,88.994,276.992l43.008,130h182.998h182.998
	l68.008-264.004c75.996-296.992,82.988-317.988,110-325.996c10.996-4.004,155-6.992,320-6.992
	c257.988,0,303.994,2.988,323.994,15.996c85,55.996,5.996,204.004-160,300.996c-15,9.004-18.994,33.008-26.006,150
	c-5,77.012-10.996,175-13.994,219.004c-5,73.008-3.994,78.008,12.002,70.996c35-15,111.992-16.992,161.992-5
	c99.004,23.008,168.008,100,176.006,194.004c2.998,38.008,12.998,51.992,92.002,131.992c48.994,49.004,98.994,110,110.996,136.016
	c69.004,142.988,42.002,279.99-80.996,417.988c-139.004,153.999-379.004,310-522.002,340l-53.994,11.001l33.994,67.002
	c110,216.997,107.002,501.997-6.006,721.997c-117.988,228.999-328.994,363.999-626.992,401.001l-100.996,12.998l-11.006,70
	c-6.006,39.004-12.998,77.002-15,83.003c-2.998,6.997,13.994,30,36.006,51.001c30.996,27.998,42.988,48.999,48.994,81.997
	c10,57.002-10,127.002-47.998,163.003C2401.465,4778.994,2312.47,4792.998,2251.465,4765.996z M2374.463,4659.995
	c30-27.998,30-82.998,0-103.999c-52.998-37.002-117.998-8.999-117.998,51.001C2256.465,4671.997,2327.47,4702.998,2374.463,4659.995
	z M2636.465,4138.994c352.998-88.999,557.998-400.996,496.006-758.999c-24.004-135-68.008-225-154.004-308.999
	c-125.996-122.998-269.004-177.002-492.002-187.998c-334.004-15-616.006,115.996-737.002,343.999
	c-45,83.999-62.998,168.999-59.004,282.998c9.004,288.003,163.008,503.999,428.008,602.002
	C2271.465,4167.998,2478.467,4178.994,2636.465,4138.994z M1256.465,4033.994c28.994-17.998,60-61.997,60-87.998
	c0-11.001-9.004-16.001-32.002-16.001c-49.004,0-112.002-36.001-134.004-75c-12.998-25-23.994-32.998-38.994-31.001
	c-30,5-55-11.997-55-36.997c0-31.001,10.996-43.999,50-61.001c18.994-7.998,45.996-26.001,58.994-40
	c50-53.999,146.006-37.998,139.004,22.002c-2.002,21.997-9.004,27.998-37.998,31.997c-29.004,3.999-36.006,8.999-37.998,33.003
	c-2.002,15.996,1.992,35,8.994,42.998c16.006,18.999,92.998,17.998,112.998-2.002c25-23.999,20-91.997-8.994-138.999
	c-32.002-51.997-31.006-76.997,5-166.001c62.998-151.997,160-293.999,270.996-392.998c132.998-120,354.004-255,492.002-300
	c189.004-62.998,487.002-60,680.996,6.001c34.004,11.001,108.008,42.998,165,71.001c96.006,47.998,108.008,50.996,180,51.997
	c71.006,0,84.004-2.998,163.008-42.998c158.994-78.003,348.994-238.003,395.996-333.003c14.004-30,22.998-66.997,22.998-101.997
	c2.002-86.006-32.998-148.994-141.992-249.99l-89.004-83.008v-60.996c0-55.996-2.998-63.008-30-87.012
	c-42.998-35.996-103.994-50.996-151.006-36.992c-67.988,20-76.992,35-83.994,139.004l-7.002,91.992l95.996,100
	c101.006,105.996,131.006,149.004,121.006,180c-8.994,27.002-132.998,140-197.002,178.003
	c-129.004,75.996-154.004,70.996-151.992-34.004c0.996-63.999,21.992-380.991,28.994-448.999c2.002-15.996,6.006-84.004,8.994-150
	c4.004-65.996,9.004-141.992,11.006-170c7.002-81.992,13.994-172.988,21.006-290c8.994-165.996,10-172.988,23.994-190
	c7.002-7.988,38.994-29.004,72.002-46.992c55-29.004,107.998-78.008,107.998-99.004c0-5-103.994-9.004-250-9.004
	c-137.002,0-250,0.996-250,3.008c0,26.992-152.002,572.988-162.998,585c-14.004,15-42.002,16.992-258.008,15.996H2192.47l-17.012-25
	c-10-13.008-53.994-140.996-98.994-284.004c-45-142.988-86.006-267.988-91.006-276.992c-8.994-15.996-30.996-18.008-248.994-18.008
	c-131.006,0-241.006,4.004-244.004,8.008c-8.994,14.004,44.004,71.992,102.998,110.996l58.008,39.004l11.992,89.004
	c7.002,47.988,14.004,103.984,16.006,122.988c2.998,19.004,10.996,85,20,145c7.998,60.996,17.998,130,20.996,155
	c12.002,99.004,80,565.996,97.002,676.001c7.002,46.001,10,91.001,5,102.998c-4.004,12.002-25,29.004-45,37.002
	c-392.002,162.002-620.996,438.999-709.004,856.001c-13.994,62.998-25.996,92.998-50.996,123.999
	c-80,98.999-84.004,211.001-10.996,307.002C1061.465,4040.996,1189.463,4072.998,1256.465,4033.994z M1421.465,2758.994
	c38.994-27.998,88.994-61.997,112.998-75.996l42.998-25l-17.002-27.002c-115.996-180.005-305.996-356.997-460-427.993
	c-36.992-17.012-53.994-30-53.994-43.008c0-29.004,25.996-36.992,85.996-29.004c132.998,18.008,295,149.004,469.004,379.004
	c60,80,77.998,97.002,95,93.003c12.002-3.003,20-14.004,20-27.002c0-22.998-80-417.993-114.004-561.001l-20.996-90l-34.004,3.008
	c-17.998,1.992-73.994,25-125,50.996c-90.996,46.992-152.002,65-255.996,75.996c-136.006,15-259.004,63.008-359.004,139.004
	c-67.998,51.992-182.002,175.996-175,188.008c2.998,3.984,22.002,7.988,42.002,7.988c97.002,0.996,267.998,65.996,390.996,148.999
	c76.006,52.002,172.002,141.001,231.006,215c25,31.001,47.002,56.001,50,56.001S1383.467,2786.997,1421.465,2758.994z
	 M3313.466,2445.991c5.996-8.994-92.002-105.996-107.002-105.996c-3.994,0-7.002,5.996-7.002,13.008
	c0,5.996-4.004,51.992-7.998,100.996l-7.998,88.999l61.992-43.003C3279.462,2475.991,3310.458,2451.997,3313.466,2445.991z
	 M2779.463,3674.995c-85-36.001-57.998-215,33.008-215c50.996,0,80,56.001,70.996,136.001
	C2875.459,3667.998,2835.459,3697.998,2779.463,3674.995z M2140.459,3646.997c-50.996-43.999-40.996-166.001,15-197.002
	c31.006-16.001,51.006-11.997,82.012,18.999c25,26.001,28.994,37.002,28.994,86.001s-3.994,60-28.994,86.001
	C2202.47,3675.996,2176.465,3677.998,2140.459,3646.997z M2661.465,3329.995c-52.998-57.998-207.998-66.997-286.006-15
	c-35,23.003-45,25-65,16.001c-30-13.999-31.992-52.998-2.988-82.002c57.988-57.998,203.994-80.996,312.988-50
	c55,16.001,126.006,77.002,126.006,107.002C2746.465,3349.995,2693.467,3364.995,2661.465,3329.995z"/>
<path fill="#49307F" d="M166.511,279.485l2.088-8.678c-5.193-0.093-7.79-1.794-7.79-5.104c0-1.546,0.649-2.807,1.947-3.781
	s3.208-1.462,5.729-1.462h2.653l3.217-13.503h-5.87c-2.447,0-4.338-0.503-5.673-1.509c-1.336-1.005-2.004-2.234-2.004-3.688
	c0-1.547,0.649-2.792,1.947-3.735s3.208-1.416,5.729-1.416h8.411l2.652-10.626c0.414-1.794,0.875-3.202,1.383-4.223
	c0.509-1.021,1.204-1.794,2.089-2.32c0.884-0.526,2.041-0.789,3.472-0.789c1.994,0,3.519,0.434,4.572,1.299
	c1.053,0.867,1.58,1.98,1.58,3.341c0,0.31-0.319,1.872-0.959,4.687l-2.089,8.631h12.362l2.709-10.626
	c0.376-1.608,0.734-2.908,1.073-3.898c0.338-0.99,0.949-1.825,1.834-2.506c0.884-0.68,2.173-1.021,3.867-1.021
	c1.956,0,3.471,0.418,4.544,1.253c1.072,0.835,1.608,1.965,1.608,3.388c0,0.649-0.048,1.284-0.142,1.902
	c-0.094,0.619-0.217,1.214-0.366,1.787c-0.151,0.573-0.245,0.936-0.282,1.09l-2.089,8.725c5.381,0.092,8.072,1.809,8.072,5.15
	c0,1.547-0.641,2.784-1.919,3.712c-1.28,0.928-3.181,1.393-5.702,1.393h-2.878l-3.388,13.503h6.266c2.521,0,4.422,0.495,5.702,1.485
	c1.278,0.99,1.919,2.243,1.919,3.758c0,1.517-0.631,2.746-1.892,3.689c-1.261,0.944-3.17,1.415-5.729,1.415h-8.692l-2.653,10.673
	c-0.414,1.702-0.781,3.017-1.101,3.944c-0.32,0.928-0.932,1.74-1.835,2.437c-0.902,0.696-2.201,1.044-3.895,1.044
	c-1.882,0-3.368-0.434-4.459-1.3c-1.092-0.865-1.638-1.995-1.638-3.387c0-1.269,0.264-2.846,0.791-4.733l2.088-8.678H181.3
	l-2.653,10.673c-0.677,2.63-1.383,4.524-2.116,5.685c-0.734,1.16-2.306,1.74-4.714,1.74c-1.919,0-3.424-0.434-4.516-1.3
	c-1.092-0.865-1.637-1.995-1.637-3.387c0-0.712,0.103-1.509,0.311-2.39C166.181,280.947,166.36,280.166,166.511,279.485z
	 M199.532,246.957h-12.475l-3.33,13.503h12.588L199.532,246.957z"/>
<path fill="#49307F" d="M80.685,388.626c-3.692-1.921-8.062-2.895-12.989-2.895H50.632c-0.552,0-1,0.447-1,1v44.011
	c0,0.553,0.448,1,1,1h17.064c4.927,0,9.295-0.964,12.985-2.865c3.722-1.918,6.622-4.657,8.618-8.141
	c1.987-3.468,2.995-7.496,2.995-11.973s-1.007-8.504-2.995-11.972C87.303,393.309,84.405,390.561,80.685,388.626z M67.857,421.048
	H61.46v-24.622h6.397c3.959,0,7.086,1.086,9.294,3.228c2.199,2.134,3.314,5.199,3.314,9.11c0,3.91-1.114,6.966-3.312,9.08
	C74.946,419.97,71.818,421.048,67.857,421.048z M143.756,408.71c0-4.55-1.082-8.708-3.215-12.358
	c-2.134-3.65-5.124-6.556-8.885-8.632c-3.751-2.072-8.01-3.122-12.66-3.122c-4.65,0-8.91,1.05-12.661,3.122
	c-3.76,2.076-6.75,4.98-8.885,8.632c-2.133,3.65-3.215,7.809-3.215,12.358c0,4.551,1.082,8.708,3.215,12.357
	c2.135,3.651,5.125,6.556,8.885,8.633c3.751,2.072,8.011,3.122,12.661,3.122c4.65,0,8.909-1.05,12.66-3.122
	c3.762-2.077,6.751-4.981,8.885-8.633C142.674,417.418,143.756,413.261,143.756,408.71z M125.625,420.264
	c-1.96,1.129-4.19,1.702-6.628,1.702c-2.44,0-4.67-0.572-6.629-1.702c-1.955-1.126-3.509-2.715-4.62-4.722
	c-1.118-2.017-1.684-4.315-1.684-6.832c0-2.552,0.566-4.858,1.683-6.856c1.11-1.99,2.665-3.57,4.621-4.697
	c1.96-1.13,4.19-1.702,6.628-1.702c2.437,0,4.667,0.573,6.628,1.702c1.955,1.127,3.509,2.707,4.622,4.697
	c1.116,2,1.682,4.307,1.682,6.856c0,2.515-0.566,4.813-1.683,6.832C129.132,417.549,127.578,419.138,125.625,420.264z
	 M143.106,395.426v-8.694c0-0.553,0.448-1,1-1h38.448c0.553,0,1,0.447,1,1v8.694c0,0.553-0.447,1-1,1h-13.311v34.316
	c0,0.553-0.447,1-1,1h-9.828c-0.552,0-1-0.447-1-1v-34.316h-13.31C143.554,396.426,143.106,395.979,143.106,395.426z
	 M186.846,430.742v-44.011c0-0.553,0.447-1,1-1h8.208c0.297,0,0.579,0.132,0.77,0.361l20.209,24.33v-24.231c0-0.553,0.447-1,1-1
	h9.827c0.553,0,1,0.447,1,1v44.011c0,0.553-0.447,1-1,1h-8.208c-0.297,0-0.579-0.132-0.77-0.361l-20.208-24.329v24.23
	c0,0.553-0.447,1-1,1h-9.828C187.293,431.742,186.846,431.295,186.846,430.742z M269.846,422.21v8.532c0,0.553-0.447,1-1,1h-33.21
	c-0.553,0-1-0.447-1-1v-44.011c0-0.553,0.447-1,1-1h32.724c0.553,0,1,0.447,1,1v8.532c0,0.553-0.447,1-1,1h-21.896v6.964h20.006
	c0.553,0,1,0.447,1,1v8.532c0,0.553-0.447,1-1,1h-20.006v7.45h22.382C269.398,421.21,269.846,421.657,269.846,422.21z
	 M312.397,386.731v8.694c0,0.553-0.447,1-1,1h-13.31v34.316c0,0.553-0.447,1-1,1h-9.828c-0.553,0-1-0.447-1-1v-34.316h-13.311
	c-0.553,0-1-0.447-1-1v-8.694c0-0.553,0.447-1,1-1h38.448C311.95,385.731,312.397,386.179,312.397,386.731z M133.9,436.263v44.011
	c0,0.553-0.448,1-1,1h-9.828c-0.552,0-1-0.447-1-1v-16.874h-17.44v16.874c0,0.553-0.448,1-1,1h-9.827c-0.552,0-1-0.447-1-1v-44.011
	c0-0.553,0.448-1,1-1h9.827c0.552,0,1,0.447,1,1v16.442h17.44v-16.442c0-0.553,0.448-1,1-1h9.828
	C133.453,435.263,133.9,435.71,133.9,436.263z M174.886,471.741v8.532c0,0.553-0.447,1-1,1h-33.21c-0.552,0-1-0.447-1-1v-44.011
	c0-0.553,0.448-1,1-1h32.724c0.553,0,1,0.447,1,1v8.532c0,0.553-0.447,1-1,1h-21.896v6.964h20.006c0.553,0,1,0.447,1,1v8.532
	c0,0.553-0.447,1-1,1h-20.006v7.45h22.382C174.438,470.741,174.886,471.188,174.886,471.741z M209.291,464.837
	c2.275-1.265,4.082-2.967,5.38-5.072c1.479-2.4,2.228-5.238,2.228-8.436c0-3.198-0.759-6.046-2.256-8.465
	c-1.502-2.425-3.699-4.324-6.529-5.645c-2.786-1.299-6.126-1.957-9.927-1.957h-17.712c-0.553,0-1,0.447-1,1v44.011
	c0,0.553,0.447,1,1,1h9.827c0.553,0,1-0.447,1-1v-12.878h6.271l8.239,13.401c0.182,0.296,0.504,0.477,0.852,0.477h11.395
	c0.007,0.001,0.015,0.001,0.02,0c0.553,0,1-0.447,1-1c0-0.266-0.104-0.507-0.272-0.687L209.291,464.837z M191.302,445.957h6.452
	c2.393,0,4.253,0.486,5.527,1.446c1.204,0.907,1.789,2.191,1.789,3.926c0,1.735-0.585,3.02-1.789,3.926
	c-1.273,0.96-3.133,1.446-5.527,1.446h-6.452V445.957z M256.585,437.251c-3.751-2.072-8.011-3.122-12.66-3.122
	c-4.65,0-8.91,1.05-12.661,3.122c-3.76,2.076-6.749,4.98-8.885,8.632c-2.133,3.65-3.215,7.809-3.215,12.358
	c0,4.551,1.082,8.708,3.215,12.357c2.135,3.651,5.124,6.556,8.885,8.633c3.751,2.072,8.011,3.122,12.661,3.122
	c4.649,0,8.909-1.05,12.66-3.122c3.762-2.077,6.751-4.981,8.885-8.633c2.133-3.649,3.215-7.807,3.215-12.357
	c0-4.55-1.082-8.708-3.215-12.358C263.335,442.232,260.346,439.327,256.585,437.251z M250.554,469.795
	c-1.96,1.129-4.19,1.702-6.629,1.702c-2.44,0-4.67-0.572-6.629-1.702c-1.955-1.126-3.509-2.715-4.619-4.722
	c-1.118-2.017-1.685-4.315-1.685-6.832c0-2.552,0.566-4.858,1.683-6.856c1.11-1.99,2.665-3.57,4.621-4.697
	c1.96-1.13,4.19-1.702,6.629-1.702c2.437,0,4.667,0.573,6.629,1.702c1.954,1.127,3.509,2.707,4.621,4.697
	c1.116,2,1.682,4.307,1.682,6.856c0,2.515-0.566,4.813-1.684,6.832C254.062,467.08,252.507,468.669,250.554,469.795z"/>
</svg>
